<?xml version="1.0" standalone="no"?><!-- Generator: Gravit.io -->
<svg xmlns="http://www.w3.org/2000/svg"
     viewBox="0 0 100 100" width="30" height="30">
    <path d=" M 26.036 49.083 L 16.161 65.193 L 16.8 65.21 C 16.381 65.998 16.161 66.812 16.161 67.646 C 16.161 74.464 30.86 80 48.964 80 C 67.068 80 81.767 74.464 81.767 67.646 C 81.767 67.403 81.748 67.161 81.711 66.921 L 82 66.928 L 81.476 65.996 C 81.255 65.374 80.911 64.766 80.452 64.176 L 65.995 38.464 L 49.991 10 L 33.076 37.597 L 26.036 49.083"
          fill="rgb(235,235,235)"/>
    <path d=" M 64.679 43.254 L 64.076 42.18 L 49.783 16.761 L 34.677 41.406 L 33.482 43.356 C 37.954 44.398 43.225 45 48.866 45 C 54.688 45 60.117 44.359 64.679 43.254 Z "
          fill="rgb(255,255,255)"/>
</svg>