<?xml version="1.0" standalone="no"?><!-- Generator: Gravit.io -->
<svg xmlns="http://www.w3.org/2000/svg"
     xmlns:xlink="http://www.w3.org/1999/xlink" style="isolation:isolate"
     viewBox="0 0 500 500" width="500" height="500">
    <defs>
        <clipPath id="_clipPath_xAXkYccF28uRavRq9PbIqWvB8koNGiC9">
            <rect width="500" height="500"/>
        </clipPath>
    </defs>
    <g clip-path="url(#_clipPath_xAXkYccF28uRavRq9PbIqWvB8koNGiC9)">
        <path d=" M 745.54 -127.697 C 854.675 -127.697 943.077 -39.229 943.077 69.849 C 943.077 115.388 927.696 157.342 901.793 190.784 C 921.736 197.227 936.209 216.015 936.209 238.149 C 936.209 265.69 913.894 288.005 886.412 288.005 C 872.245 288.005 859.539 282.105 850.417 272.68 C 850.357 292.504 834.245 308.616 814.424 308.616 C 800.379 308.616 788.219 300.589 782.263 288.857 C 777.458 290.799 772.291 291.836 766.819 291.836 C 759.704 291.836 753.079 290.072 747.241 286.969 C 742.743 302.416 728.392 313.723 711.43 313.723 C 699.027 313.723 688.023 307.642 681.214 298.279 C 671.789 308.553 658.29 315 643.274 315 C 614.821 315 591.775 291.957 591.775 263.561 C 591.775 244.895 601.687 228.54 616.582 219.483 C 574.63 183.244 548 129.676 548 69.849 C 548 -39.229 636.465 -127.697 745.54 -127.697 Z "
              fill-rule="evenodd" fill="rgb(67,111,93)"/>
        <path d=" M 745.54 -127.697 C 786.518 -127.697 824.639 -115.231 856.195 -93.831 C 875.529 -57.836 886.534 -16.674 886.534 27.045 C 886.534 168.225 772.107 282.654 630.93 282.654 C 618.527 282.654 606.367 281.802 594.51 280.101 C 592.749 274.869 591.775 269.337 591.775 263.561 C 591.775 244.895 601.687 228.54 616.582 219.483 C 574.63 183.244 548 129.676 548 69.849 C 548 -39.229 636.465 -127.697 745.54 -127.697 Z "
              fill-rule="evenodd" fill="rgb(82,155,139)"/>
        <path d=" M 630.504 63.463 C 604.18 -91.276 898.268 -91.276 871.944 63.463 C 848.168 203.064 654.277 203.064 630.504 63.463 Z "
              fill-rule="evenodd" fill="rgb(255,83,76)"/>
        <path d=" M 776 165.731 C 757.334 169.443 737.878 168.894 719.456 164.089 C 702.614 153.996 691.303 135.577 691.303 114.476 C 691.303 82.558 717.205 56.653 749.186 56.653 C 781.107 56.653 807.009 82.558 807.009 114.476 C 807.009 136.729 794.422 156.063 776 165.731 Z "
              fill-rule="evenodd" fill="rgb(255,130,110)"/>
        <path d=" M 821.54 146.459 C 780.315 175.156 723.347 175.399 681.882 147.127 C 685.591 141.289 691.245 137.581 697.567 137.581 C 705.471 137.581 712.402 143.481 715.686 152.053 C 718.97 143.481 725.839 137.581 733.805 137.581 C 741.769 137.581 748.641 143.481 751.922 152.053 C 755.203 143.481 762.137 137.581 770.041 137.581 C 778.005 137.581 784.876 143.481 788.22 152.053 C 791.504 143.481 798.372 137.581 806.339 137.581 C 812.418 137.581 817.828 140.984 821.54 146.459 Z "
              fill-rule="evenodd" fill="rgb(255,255,255)"/>
        <path d=" M 821.54 146.459 C 780.315 175.156 723.347 175.399 681.882 147.127 C 682.429 146.275 682.975 145.485 683.584 144.755 C 724.259 170.473 779.282 170.229 819.776 144.149 C 820.385 144.876 820.99 145.607 821.54 146.459 Z "
              fill-rule="evenodd" fill="rgb(231,234,234)"/>
        <path d=" M 661.269 -23.969 C 708.085 -62.093 793.996 -62.15 840.934 -24.15 C 836.191 -16.308 828.836 -11.26 820.507 -11.26 C 810.352 -11.26 801.535 -18.799 797.342 -29.685 C 793.144 -18.799 784.39 -11.26 774.238 -11.26 C 764.082 -11.26 755.266 -18.799 751.073 -29.685 C 746.877 -18.799 738.061 -11.26 727.909 -11.26 C 717.753 -11.26 709 -18.799 704.742 -29.685 C 700.546 -18.799 691.792 -11.26 681.637 -11.26 C 673.37 -11.26 666.012 -16.246 661.269 -23.969 Z "
              fill-rule="evenodd" fill="rgb(255,255,255)"/>
        <path d=" M 661.269 -23.969 C 708.085 -62.093 793.996 -62.15 840.934 -24.15 C 840.144 -22.876 839.354 -21.659 838.442 -20.563 C 791.867 -54.551 710.274 -54.551 663.823 -20.441 C 662.911 -21.537 662.059 -22.692 661.269 -23.969 Z "
              fill-rule="evenodd" fill="rgb(231,234,234)"/>
        <path d=" M 849.568 -89.148 C 821.05 -85.926 796.976 -78.689 778.189 -66.651 C 778.189 -66.651 791.382 -87.811 811.203 -92.129 C 831.086 -96.384 849.568 -89.148 849.568 -89.148 Z "
              fill-rule="evenodd" fill="rgb(40,42,41)"/>
        <path d=" M 647.834 -89.148 C 676.349 -85.926 700.425 -78.689 719.21 -66.651 C 719.21 -66.651 706.019 -87.811 686.198 -92.129 C 666.378 -96.384 647.834 -89.148 647.834 -89.148 Z "
              fill-rule="evenodd" fill="rgb(40,42,41)"/>
        <path d=" M 581.197 56.532 C 588.311 56.532 594.087 62.248 594.087 69.36 C 594.087 76.474 588.311 82.253 581.197 82.253 C 574.082 82.253 568.366 76.474 568.366 69.36 C 568.366 62.248 574.082 56.532 581.197 56.532 Z "
              fill-rule="evenodd" fill="rgb(55,112,100)"/>
        <path d=" M 570.252 37.198 C 574.57 37.198 577.973 40.666 577.973 44.918 C 577.973 49.176 574.57 52.642 570.252 52.642 C 565.997 52.642 562.529 49.176 562.529 44.918 C 562.529 40.666 565.997 37.198 570.252 37.198 Z "
              fill-rule="evenodd" fill="rgb(55,112,100)"/>
        <path d=" M 600.836 49.42 C 603.874 49.42 606.306 51.849 606.306 54.889 C 606.306 57.93 603.874 60.362 600.836 60.362 C 597.793 60.362 595.361 57.93 595.361 54.889 C 595.361 51.849 597.793 49.42 600.836 49.42 Z "
              fill-rule="evenodd" fill="rgb(55,112,100)"/>
        <path d=" M 911.826 86.751 C 904.712 86.751 898.936 92.529 898.936 99.641 C 898.936 106.753 904.712 112.469 911.826 112.469 C 918.938 112.469 924.654 106.753 924.654 99.641 C 924.654 92.529 918.938 86.751 911.826 86.751 Z "
              fill-rule="evenodd" fill="rgb(82,155,139)"/>
        <path d=" M 922.77 67.417 C 918.514 67.417 915.046 70.885 915.046 75.137 C 915.046 79.455 918.514 82.861 922.77 82.861 C 927.025 82.861 930.49 79.455 930.49 75.137 C 930.49 70.885 927.025 67.417 922.77 67.417 Z "
              fill-rule="evenodd" fill="rgb(82,155,139)"/>
        <path d=" M 892.188 79.697 C 889.15 79.697 886.716 82.131 886.716 85.169 C 886.716 88.15 889.15 90.579 892.188 90.579 C 895.229 90.579 897.661 88.15 897.661 85.169 C 897.661 82.131 895.229 79.697 892.188 79.697 Z "
              fill-rule="evenodd" fill="rgb(82,155,139)"/>
        <path d=" M 616.947 -57.289 C 621.262 -57.289 624.67 -53.824 624.67 -49.566 C 624.67 -45.31 621.262 -41.845 616.947 -41.845 C 612.692 -41.845 609.224 -45.31 609.224 -49.566 C 609.224 -53.824 612.692 -57.289 616.947 -57.289 Z "
              fill-rule="evenodd" fill="rgb(55,112,100)"/>
        <path d=" M 633.97 -69.267 C 637.01 -69.267 639.442 -66.835 639.442 -63.854 C 639.442 -60.816 637.01 -58.382 633.97 -58.382 C 630.991 -58.382 628.497 -60.816 628.497 -63.854 C 628.497 -66.835 630.991 -69.267 633.97 -69.267 Z "
              fill-rule="evenodd" fill="rgb(55,112,100)"/>
        <path d=" M 857.168 -35.155 C 857.899 -39.351 861.91 -42.148 866.106 -41.418 C 870.302 -40.69 873.156 -36.676 872.366 -32.483 C 871.638 -28.287 867.624 -25.487 863.431 -26.218 C 859.235 -26.948 856.438 -30.963 857.168 -35.155 Z "
              fill-rule="evenodd" fill="rgb(55,112,100)"/>
        <path d=" M 848.292 -54.004 C 848.838 -56.983 851.695 -58.993 854.673 -58.444 C 857.654 -57.897 859.599 -55.1 859.112 -52.119 C 858.566 -49.14 855.709 -47.136 852.788 -47.682 C 849.809 -48.167 847.805 -51.026 848.292 -54.004 Z "
              fill-rule="evenodd" fill="rgb(55,112,100)"/>
        <path d=" M 635.004 250.186 C 642.056 250.186 647.835 255.961 647.835 263.076 C 647.835 270.188 642.056 275.966 635.004 275.966 C 627.889 275.966 622.116 270.188 622.116 263.076 C 622.116 255.961 627.889 250.186 635.004 250.186 Z "
              fill-rule="evenodd" fill="rgb(55,112,100)"/>
        <path d=" M 624.062 230.912 C 628.315 230.912 631.78 234.378 631.78 238.636 C 631.78 242.888 628.315 246.353 624.062 246.353 C 619.804 246.353 616.339 242.888 616.339 238.636 C 616.339 234.378 619.804 230.912 624.062 230.912 Z "
              fill-rule="evenodd" fill="rgb(55,112,100)"/>
        <path d=" M 654.581 243.133 C 657.622 243.133 660.054 245.565 660.054 248.605 C 660.054 251.584 657.622 254.078 654.581 254.078 C 651.603 254.078 649.111 251.584 649.111 248.605 C 649.111 245.565 651.603 243.133 654.581 243.133 Z "
              fill-rule="evenodd" fill="rgb(55,112,100)"/>
        <path d=" M 242.463 34.303 C 351.598 34.303 440 122.771 440 231.849 C 440 277.388 424.618 319.342 398.716 352.784 C 418.659 359.227 433.132 378.015 433.132 400.149 C 433.132 427.69 410.817 450.005 383.335 450.005 C 369.168 450.005 356.462 444.105 347.34 434.68 C 347.28 454.504 331.168 470.616 311.347 470.616 C 297.302 470.616 285.142 462.589 279.186 450.857 C 274.381 452.799 269.214 453.836 263.742 453.836 C 256.627 453.836 250.002 452.072 244.164 448.969 C 239.666 464.416 225.315 475.723 208.353 475.723 C 195.95 475.723 184.945 469.642 178.137 460.279 C 168.712 470.554 155.213 477 140.196 477 C 111.743 477 88.698 453.957 88.698 425.561 C 88.698 406.895 98.61 390.54 113.504 381.483 C 71.553 345.244 44.923 291.676 44.923 231.849 C 44.923 122.771 133.388 34.303 242.463 34.303 Z "
              fill-rule="evenodd" fill="rgb(67,111,93)"/>
        <path d=" M 242.463 34.303 C 283.441 34.303 321.562 46.769 353.118 68.169 C 372.452 104.164 383.456 145.326 383.456 189.045 C 383.456 330.225 269.03 444.654 127.853 444.654 C 115.449 444.654 103.29 443.802 91.433 442.101 C 89.672 436.869 88.698 431.337 88.698 425.561 C 88.698 406.895 98.61 390.54 113.504 381.483 C 71.553 345.244 44.923 291.676 44.923 231.849 C 44.923 122.771 133.388 34.303 242.463 34.303 Z "
              fill-rule="evenodd" fill="rgb(82,155,139)"/>
    </g>
</svg>