<?xml version="1.0" standalone="no"?><!-- Generator: Gravit.io -->
<svg xmlns="http://www.w3.org/2000/svg"
     viewBox="0 0 133 135" width="133" height="135">
    <defs>
        <clipPath id="_clipPath_jzY5Tf1JjmpG367ZPSnFajkRqOBRdqw6">
            <rect width="133" height="135"/>
        </clipPath>
    </defs>
    <g clip-path="url(#_clipPath_jzY5Tf1JjmpG367ZPSnFajkRqOBRdqw6)">
        <g>
            <path d=" M 64.562 -35.589 L 47.005 -36.549 L 67.533 -104 L 86.995 -35.134 L 64.562 -35.589 Z "
                  fill-rule="evenodd" fill="rgb(246,241,218)"/>
            <path d=" M 64.562 -35.589 L 47.005 -36.549 L 53.534 -57.972 C 60.225 -57.565 67.007 -56.172 73.688 -53.713 C 76.92 -52.525 80.005 -51.111 82.938 -49.54 L 86.995 -35.134 L 64.562 -35.589 Z "
                  fill-rule="evenodd" fill="rgb(242,218,166)"/>
            <path d=" M 64.393 -93.693 L 65.252 -96.486 L 69.753 -96.146 L 70.591 -93.24 L 64.393 -93.693 Z  M 62.476 -87.329 L 63.297 -90.066 L 71.992 -88.201 L 72.884 -85.084 L 62.476 -87.329 Z  M 59.536 -77.694 L 60.403 -80.527 L 74.244 -80.227 L 75.052 -77.373 L 59.536 -77.694 Z  M 56.97 -69.249 L 57.799 -72.027 L 76.97 -70.626 L 77.784 -67.706 L 56.97 -69.249 Z  M 54.412 -60.844 L 55.451 -64.334 L 80.093 -59.522 L 81.215 -55.602 L 54.412 -60.844 Z "
                  fill-rule="evenodd" fill="rgb(242,218,166)"/>
        </g>
        <g>
            <path d=" M -105.712 58.399 L -115.607 75.678 C -116.056 76.522 -116.292 77.394 -116.292 78.288 C -116.292 85.593 -100.543 91.524 -81.146 91.524 C -61.749 91.524 -46 85.593 -46 78.288 C -46 78.027 -46.917 75.202 -47.409 74.57 L -62.898 47.021 L -80.045 16.524 L -98.169 46.092 L -105.712 58.399 Z "
                  fill="rgb(235,235,235)"/>
            <path d=" M -53.267 64.151 C -61.271 68.837 -70.585 71.524 -80.521 71.524 C -90.839 71.524 -100.486 68.627 -108.692 63.602 L -106.422 59.639 C -98.904 64.392 -90.027 67.139 -80.521 67.139 C -71.383 67.138 -62.826 64.599 -55.499 60.181 L -53.267 64.151 Z "
                  fill-rule="evenodd" fill="rgb(195,207,217)"/>
            <path d=" M -48.296 72.992 C -58.113 79.037 -69.67 82.524 -82.034 82.524 C -93.87 82.524 -104.966 79.328 -114.505 73.753 L -111.806 69.04 C -103.083 74.283 -92.903 77.293 -82.034 77.293 C -70.624 77.292 -59.972 73.974 -50.968 68.239 L -48.296 72.992 Z "
                  fill="rgb(195,207,217)"/>
        </g>
        <g>
            <path d=" M 182.924 58.875 L 176.448 76.154 C 176.154 76.998 176 77.87 176 78.764 C 176 86.069 186.306 92 199 92 C 211.694 92 222 86.069 222 78.764 C 222 78.503 221.4 75.678 221.078 75.046 L 210.942 47.497 L 199.721 17 L 187.86 46.568 L 182.924 58.875 Z "
                  fill="rgb(235,235,235)"/>
            <path d=" M 179.606 81.425 C 178.187 79.02 179.004 75.927 181.409 74.531 C 183.814 73.135 186.907 73.951 188.303 76.357 C 189.72 78.763 188.904 81.855 186.5 83.251 C 184.094 84.647 181.002 83.831 179.606 81.425 Z "
                  fill-rule="evenodd" fill="rgb(244,72,121)"/>
            <path d=" M 207.187 73.914 C 206.349 72.476 206.822 70.607 208.282 69.769 C 209.72 68.932 211.568 69.425 212.406 70.864 C 213.243 72.303 212.771 74.172 211.311 75.009 C 209.871 75.847 208.024 75.352 207.187 73.914 Z "
                  fill-rule="evenodd" fill="rgb(244,72,121)"/>
            <path d=" M 205.296 61.157 C 204.694 60.126 205.038 58.816 206.068 58.215 C 207.102 57.635 208.409 57.979 208.99 58.988 C 209.592 60.018 209.248 61.328 208.217 61.93 C 207.207 62.531 205.898 62.166 205.296 61.157 Z "
                  fill-rule="evenodd" fill="rgb(244,72,121)"/>
            <path d=" M 187.01 87.869 C 186.408 86.838 186.752 85.528 187.782 84.927 C 188.816 84.347 190.123 84.691 190.704 85.7 C 191.306 86.73 190.962 88.04 189.931 88.642 C 188.921 89.243 187.612 88.878 187.01 87.869 Z "
                  fill-rule="evenodd" fill="rgb(244,72,121)"/>
            <path d=" M 218.548 68.171 L 215.13 58.88 C 214.526 58.973 213.93 59.178 213.371 59.503 C 210.966 60.899 210.149 63.992 211.568 66.397 C 212.964 68.803 216.056 69.619 218.462 68.223 C 218.491 68.206 218.52 68.188 218.548 68.171 Z "
                  fill-rule="evenodd" fill="rgb(244,72,121)"/>
        </g>
        <g>
            <path d=" M 82.284 28.284 C 83.522 34.619 86.188 40.518 88.822 46.439 C 85.28 44.883 81.63 43.6 77.788 42.798 C 77.662 37.562 78.448 31.832 82.284 28.284 Z "
                  fill="rgb(255,210,146)"/>
            <path d=" M 93.573 58.326 C 94.52 61.305 95.154 64.502 95.387 67.704 C 93.583 65.975 91.77 64.219 89.909 62.499 C 90.614 58.893 90.91 55.138 90.968 51.389 C 91.925 53.672 92.826 55.974 93.573 58.326 Z "
                  fill="rgb(0,150,167)"/>
            <path d=" M 77.791 42.991 C 77.79 42.927 77.79 42.862 77.788 42.798 C 81.63 43.599 85.281 44.884 88.821 46.438 C 89.552 48.083 90.274 49.732 90.969 51.39 C 90.909 55.139 90.613 58.894 89.91 62.499 C 86.264 59.126 82.425 55.896 78.032 53.33 C 78.245 49.923 77.888 46.424 77.791 42.991 Z "
                  fill="rgb(35,166,179)"/>
            <path d=" M 82.1 78.665 C 83.976 81.953 85.731 85.32 87.406 88.719 C 84.915 90.526 82.008 91.711 79.086 92.709 C 78.103 93.044 77.106 93.338 76.11 93.637 C 75.058 90.802 73.895 88.021 72.609 85.309 C 73.737 84.725 74.858 84.103 75.968 83.424 C 78.361 82.058 80.384 80.454 82.1 78.665 Z "
                  fill="rgb(0,150,167)"/>
            <path d=" M 73.135 65.242 C 76.491 69.442 79.422 73.973 82.1 78.666 C 80.384 80.453 78.361 82.057 75.968 83.424 C 74.858 84.103 73.737 84.725 72.607 85.31 C 70.288 80.419 67.557 75.757 64.27 71.432 C 67.647 69.854 70.745 67.832 73.135 65.242 Z "
                  fill="rgb(35,166,179)"/>
            <path d=" M 72.608 85.309 C 73.894 88.021 75.059 90.802 76.111 93.637 C 65.734 96.76 54.769 97.926 43.972 96.997 C 42.988 96.913 41.938 96.784 41.193 96.136 C 40.433 95.478 40.162 94.43 39.944 93.449 C 39.7 92.355 39.483 91.256 39.271 90.155 C 50.314 92.224 61.854 90.877 72.608 85.309 Z "
                  fill="rgb(255,204,128)"/>
            <path d=" M 39.272 90.155 C 38.446 85.865 37.852 81.531 37.514 77.174 C 43.221 76.866 48.9 76.053 54.465 74.752 C 57.76 73.981 61.135 72.896 64.269 71.431 C 67.557 75.756 70.288 80.42 72.609 85.309 C 61.853 90.877 50.313 92.224 39.272 90.155 Z "
                  fill="rgb(255,210,146)"/>
            <path d=" M 89.91 62.499 C 91.769 64.219 93.583 65.975 95.388 67.704 C 95.958 75.481 94.114 83.289 88.235 88.091 C 87.965 88.31 87.686 88.516 87.407 88.719 C 85.731 85.32 83.975 81.953 82.1 78.665 C 86.388 74.194 88.726 68.56 89.91 62.499 Z "
                  fill="rgb(255,204,128)"/>
            <path d=" M 77.054 58.746 C 77.643 56.987 77.917 55.171 78.033 53.33 C 82.426 55.896 86.263 59.126 89.91 62.499 C 88.726 68.56 86.388 74.194 82.1 78.666 C 79.422 73.973 76.491 69.442 73.135 65.242 C 74.855 63.378 76.221 61.233 77.054 58.746 Z "
                  fill="rgb(255,210,146)"/>
        </g>
        <g>
            <path d=" M 160.416 -46.711 C 168.747 -38.38 180.317 -34.763 192.794 -33.191 C 195.075 -40.114 198.166 -49.644 201.741 -54.232 L 186.625 -60.336 C 184.011 -61.394 183.062 -64.543 184.563 -66.927 C 189.24 -74.32 189.737 -84.262 187.546 -92.943 C 185.567 -100.741 181.691 -108.059 176.342 -114.08 C 180.043 -106.264 179.399 -97.39 176.628 -89.04 C 176.342 -88.184 176.002 -87.337 175.679 -86.499 C 174.455 -83.36 172.872 -80.322 171.205 -77.477 C 170.745 -76.685 170.542 -75.912 169.622 -75.139 L 169.622 -75.13 C 169.622 -75.019 169.604 -74.909 169.576 -74.798 C 169.456 -74.089 168.932 -73.399 168.471 -72.708 C 168.453 -72.69 168.443 -72.662 168.425 -72.644 C 165.946 -68.844 163.588 -65.161 161.074 -61.429 C 158.115 -55.6 156.773 -50.354 160.416 -46.711 Z "
                  fill="rgb(99,190,183)"/>
            <path d=" M 160.416 -46.711 C 156.773 -50.354 158.115 -55.6 161.074 -61.429 C 160.89 -61.157 160.712 -60.885 160.526 -60.612 C 160.499 -60.557 160.453 -60.492 160.416 -60.437 L 160.416 -60.428 C 158.612 -58.872 158.05 -57.298 157.056 -55.714 C 157.037 -55.678 157.01 -55.65 156.991 -55.613 C 154.81 -52.188 152.6 -48.663 150.989 -44.925 C 150.29 -43.286 149.645 -41.445 150.225 -39.76 C 150.612 -38.628 151.477 -37.763 152.453 -37.036 C 152.803 -36.778 153.162 -36.529 153.521 -36.299 C 153.65 -36.216 153.769 -36.143 153.898 -36.069 C 157.516 -33.777 161.373 -31.871 165.396 -30.407 C 166.004 -30.177 166.612 -29.965 167.228 -29.763 C 169.705 -28.944 172.227 -28.29 174.786 -27.793 C 176.462 -27.471 187.877 -24.488 189.479 -25.077 C 190.187 -25.337 191.322 -28.722 192.794 -33.191 C 180.317 -34.763 168.747 -38.38 160.416 -46.711 Z "
                  fill="rgb(77,182,172)"/>
            <path d=" M 173.442 -43.038 C 171.26 -38.674 169.262 -34.209 167.228 -29.763 C 166.611 -29.966 166.004 -30.177 165.396 -30.407 C 167.348 -35.011 169.842 -39.236 172.77 -43.434 C 173.064 -43.839 173.672 -43.489 173.442 -43.038 Z "
                  fill="rgb(255,237,87)"/>
            <path d=" M 165.719 -48.313 C 161.788 -44.216 157.876 -40.129 153.899 -36.069 C 153.77 -36.143 153.65 -36.216 153.521 -36.299 C 153.162 -36.529 152.803 -36.778 152.453 -37.036 C 156.587 -41.114 160.96 -44.833 165.664 -48.387 C 165.71 -48.424 165.756 -48.35 165.719 -48.313 Z "
                  fill="rgb(255,237,87)"/>
            <path d=" M 170.837 -61.1 C 166.501 -58.808 161.714 -57.344 157.056 -55.715 C 158.05 -57.298 158.612 -58.872 160.416 -60.428 L 160.416 -60.437 C 160.453 -60.493 160.499 -60.557 160.526 -60.612 C 163.868 -61.616 167.357 -62.002 170.809 -61.339 C 170.92 -61.321 170.929 -61.155 170.837 -61.1 Z "
                  fill="rgb(255,237,87)"/>
            <path d=" M 177.023 -74.872 C 174.188 -73.961 171.099 -73.335 168.199 -72.644 C 168.742 -73.464 169.621 -74.292 169.621 -75.13 L 169.621 -75.139 C 172.383 -75.553 174.441 -75.609 176.853 -75.121 C 176.981 -75.093 177.133 -74.909 177.023 -74.872 Z "
                  fill="rgb(255,237,87)"/>
            <path d=" M 180.273 -87.824 C 178.763 -87.456 177.253 -86.977 175.762 -86.498 C 176.084 -87.336 176.388 -88.183 176.673 -89.039 C 177.87 -88.901 178.993 -88.616 180.273 -88.238 C 180.466 -88.183 180.485 -87.879 180.273 -87.824 Z "
                  fill="rgb(255,237,87)"/>
        </g>
        <g>
            <path d=" M 75.504 197.982 C 62.847 201.876 49.74 204.116 36.46 205.193 C 35.761 199.476 33.318 193.965 29.465 189.677 C 31.514 187.21 67.978 192.791 70.077 187.012 C 71.614 182.779 72.406 166.499 71.207 164 C 74.835 171.561 77.615 179.571 79.766 187.683 C 80.084 188.884 80.394 190.199 80.624 191.555 C 80.128 194.619 78.654 197.013 75.504 197.982 Z "
                  fill="rgb(255,211,81)"/>
            <path d=" M 75.504 197.982 C 78.654 197.013 80.128 194.619 80.624 191.555 C 81.096 194.333 81.23 197.283 80.389 199.779 C 79.043 203.778 75.628 204.364 71.625 204.806 C 59.847 206.109 48.143 208.079 36.587 210.703 C 36.732 208.867 36.683 207.02 36.46 205.193 C 49.74 204.116 62.847 201.876 75.504 197.982 Z "
                  fill="rgb(255,201,40)"/>
            <path d=" M 58.986 190.253 C 57.386 190.253 56.052 191.588 56.052 193.187 C 56.052 194.787 57.386 196.122 58.986 196.122 C 60.586 196.122 61.92 194.787 61.92 193.187 C 61.92 191.588 60.586 190.253 58.986 190.253 Z "
                  fill="rgb(57,72,171)"/>
            <path d=" M 74.33 195.992 C 70.648 195.992 70.648 201.429 74.33 201.429 C 77.092 201.429 77.092 195.992 74.33 195.992 Z "
                  fill="rgb(57,72,171)"/>
            <path d=" M 75.097 186.844 C 73.897 186.844 72.896 187.845 72.896 189.045 C 72.896 190.244 73.897 191.246 75.097 191.246 C 76.297 191.246 77.298 190.244 77.298 189.045 C 77.298 187.845 76.297 186.844 75.097 186.844 Z "
                  fill="rgb(57,72,171)"/>
        </g>
        <g>
            <path d=" M -109.824 158.771 C -109.39 159.562 -108.901 160.323 -108.365 161.037 C -105.681 164.598 -101.351 167.399 -96.952 166.647 C -95.128 166.336 -93.445 165.444 -91.978 164.311 C -91.551 163.977 -91.14 163.628 -90.752 163.256 C -90.007 162.565 -89.34 161.805 -88.75 160.99 C -87.33 159.074 -86.314 156.87 -85.701 154.527 C -85.484 153.751 -85.487 152.959 -85.37 152.16 C -84.804 148.498 -84.681 144.657 -86.522 141.166 L -86.522 141.158 C -86.522 140.995 -86.465 140.654 -86.527 140.498 C -86.821 139.722 -87.064 139.681 -87.429 138.494 C -87.468 138.362 -87.424 138.336 -87.462 138.336 L -87.47 138.336 C -87.982 137.416 -88.564 136.221 -89.2 135.266 C -91.52 131.783 -94.593 128.746 -98.061 126.271 C -98.915 125.666 -99.962 126.351 -99.931 127.259 C -99.931 127.298 -99.931 127.303 -99.923 127.342 C -99.9 127.497 -99.846 127.643 -99.753 127.798 C -99.745 127.814 -99.73 127.852 -99.722 127.867 C -99.404 128.41 -99.093 128.965 -98.806 129.539 C -98.317 130.478 -97.883 131.453 -97.534 132.447 C -97.472 132.625 -97.417 132.802 -97.355 132.981 C -97.022 134.044 -96.789 135.13 -96.711 136.208 C -96.657 136.852 -96.665 137.496 -96.735 138.132 C -96.812 138.9 -96.991 139.668 -97.278 140.413 C -97.526 141.065 -97.852 141.67 -98.24 142.236 C -98.581 142.749 -98.969 143.214 -99.404 143.656 C -99.931 144.199 -100.513 144.688 -101.134 145.123 C -101.762 145.565 -102.43 145.961 -103.12 146.302 C -103.151 146.31 -103.175 146.326 -103.206 146.341 C -105.782 147.59 -108.621 148.172 -111.422 148.739 C -112.307 152.106 -111.515 155.691 -109.824 158.771 Z "
                  fill="rgb(158,157,35)"/>
            <path d=" M -109.824 158.771 C -104.439 158.949 -99.326 157.049 -95.392 153.953 C -94.88 153.549 -94.383 153.122 -93.918 152.68 C -92.785 151.625 -91.784 150.469 -90.939 149.227 C -90.574 148.7 -90.24 148.157 -89.937 147.606 C -89.705 147.187 -89.488 146.76 -89.293 146.333 C -88.347 144.254 -87.998 142.12 -88.122 140.025 C -88.168 139.249 -88.269 138.473 -88.44 137.713 C -88.626 136.852 -88.882 136.006 -89.2 135.176 C -91.52 131.692 -94.593 128.705 -98.061 126.229 C -98.899 125.624 -99.916 126.315 -99.931 127.192 C -99.931 127.23 -99.931 127.269 -99.923 127.308 C -99.908 127.479 -99.854 127.649 -99.753 127.828 C -99.745 127.843 -99.73 127.867 -99.722 127.882 C -98.876 129.31 -98.092 130.854 -97.534 132.444 C -97.472 132.623 -97.417 132.801 -97.355 132.98 C -97.022 134.043 -96.789 135.129 -96.711 136.208 C -96.657 136.852 -96.665 137.496 -96.735 138.132 C -96.812 138.9 -96.991 139.668 -97.278 140.413 C -97.526 141.065 -97.852 141.67 -98.24 142.236 C -98.581 142.749 -98.969 143.214 -99.404 143.656 C -99.931 144.199 -100.513 144.688 -101.134 145.123 C -101.762 145.565 -102.43 145.961 -103.12 146.302 C -103.151 146.31 -103.175 146.326 -103.206 146.341 C -105.782 147.59 -108.621 148.172 -111.422 148.739 C -112.307 152.106 -111.515 155.691 -109.824 158.771 Z "
                  fill="rgb(174,174,74)"/>
            <path d=" M -92.226 137.759 C -91.435 138.582 -90.185 138.907 -89.192 139.427 C -88.835 139.613 -88.478 139.815 -88.121 140.025 C -87.47 140.389 -86.826 140.777 -86.189 141.157 C -86.244 140.995 -86.298 140.653 -86.36 140.498 C -86.655 139.722 -86.981 139.412 -87.345 138.225 C -87.695 138.023 -88.059 137.86 -88.44 137.712 C -88.447 137.712 -88.455 137.705 -88.463 137.705 C -89.557 137.286 -90.915 136.75 -92.071 137.177 C -92.311 137.27 -92.412 137.557 -92.226 137.759 Z "
                  fill="rgb(255,201,40)"/>
            <path d=" M -96.734 138.132 C -95.911 138.093 -95.073 138.078 -94.329 137.76 C -93.941 137.597 -93.817 137.1 -94.212 136.844 C -94.911 136.394 -95.826 136.239 -96.711 136.208 C -96.656 136.852 -96.664 137.496 -96.734 138.132 Z "
                  fill="rgb(255,201,40)"/>
            <path d=" M -94.383 145.247 C -93.747 146.721 -92.327 148.017 -90.938 149.227 C -90.178 149.887 -89.433 150.523 -88.828 151.152 C -87.765 152.253 -86.733 153.394 -85.701 154.527 C -85.483 153.751 -85.32 152.959 -85.204 152.16 C -86.127 151.167 -87.105 150.221 -88.129 149.305 C -88.696 148.801 -89.301 148.195 -89.937 147.606 C -91.217 146.419 -92.629 145.255 -94.166 144.96 C -94.344 144.921 -94.453 145.084 -94.383 145.247 Z "
                  fill="rgb(255,201,40)"/>
            <path d=" M -99.404 143.656 C -98.69 143.959 -97.976 144.261 -97.262 144.548 C -96.587 144.812 -95.99 143.772 -96.549 143.315 C -97.107 142.857 -97.658 142.508 -98.24 142.236 C -98.581 142.748 -98.969 143.214 -99.404 143.656 Z "
                  fill="rgb(255,201,40)"/>
            <path d=" M -97.029 150.802 C -96.532 151.873 -95.974 152.92 -95.392 153.952 C -94.399 155.752 -93.343 157.521 -92.459 159.383 C -91.854 160.656 -91.303 161.952 -90.752 163.255 C -90.007 162.565 -89.34 161.804 -88.75 160.99 C -90.123 158.026 -91.924 155.131 -93.918 152.68 C -94.655 151.772 -95.415 150.926 -96.199 150.158 C -96.649 149.716 -97.277 150.274 -97.029 150.802 Z "
                  fill="rgb(255,201,40)"/>
            <path d=" M -103.12 146.302 C -102.98 146.411 -102.833 146.512 -102.686 146.62 C -101.747 147.311 -100.878 148.188 -99.877 148.769 C -99.225 149.15 -98.55 148.413 -98.884 147.776 C -99.403 146.799 -100.203 145.891 -101.134 145.123 C -101.762 145.565 -102.429 145.961 -103.12 146.302 Z "
                  fill="rgb(255,201,40)"/>
        </g>
        <g>
            <path d=" M -48.474 -28.563 C -47.956 -27.986 -47.372 -27.437 -46.64 -27.177 C -45.945 -26.943 -45.182 -26.989 -44.443 -27.048 C -41.064 -27.307 -37.696 -27.638 -34.332 -28.03 C -33.773 -28.093 -33.215 -28.156 -32.663 -28.229 C -29.26 -28.639 -25.867 -29.129 -22.486 -29.682 C -21.976 -29.763 -21.473 -29.847 -20.969 -29.939 C -20.289 -30.045 -19.613 -30.17 -18.939 -30.286 C -16.628 -30.694 -14.201 -31.199 -12.469 -32.787 C -12.276 -32.962 -12.098 -33.15 -11.934 -33.348 C -11.593 -33.734 -11.314 -34.151 -11.081 -34.595 C -9.684 -37.172 -9.797 -40.588 -10.04 -43.635 C -10.18 -42.366 -10.936 -41.298 -11.971 -40.54 C -12.229 -40.344 -12.507 -40.178 -12.797 -40.032 C -13.509 -39.656 -14.247 -39.605 -15.021 -39.51 C -15.27 -39.476 -15.496 -39.594 -15.736 -39.645 L -15.745 -39.646 C -15.78 -39.602 -15.814 -39.566 -15.845 -39.538 C -16.44 -38.981 -16.814 -39.459 -17.297 -39.509 C -17.322 -39.515 -17.357 -39.513 -17.382 -39.519 C -18.957 -39.681 -20.552 -39.916 -22.091 -40.33 C -24.345 -40.922 -26.709 -41.122 -28.987 -41.598 L -29.078 -41.618 C -29.087 -41.619 -29.087 -41.619 -29.095 -41.621 L -30.577 -41.937 C -33.326 -42.521 -36.203 -42.424 -39.014 -42.476 C -39.065 -42.479 -39.109 -42.479 -39.16 -42.481 C -39.641 -42.497 -40.019 -43.002 -40.591 -42.509 C -40.651 -42.47 -40.695 -42.427 -40.75 -42.37 L -40.759 -42.371 C -44.17 -43.097 -47.839 -42.328 -51.376 -41.817 C -52.841 -37.247 -51.668 -32.142 -48.474 -28.563 Z "
                  fill="rgb(24,118,210)"/>
            <path d=" M -51.376 -41.817 C -47.84 -42.328 -44.171 -43.097 -40.759 -42.371 L -40.751 -42.37 C -40.695 -42.427 -40.652 -42.47 -40.591 -42.509 C -40.019 -43.002 -39.642 -42.497 -39.16 -42.481 C -39.109 -42.479 -39.066 -42.479 -39.014 -42.476 C -36.204 -42.424 -33.327 -42.521 -30.578 -41.937 L -29.095 -41.621 C -29.087 -41.619 -29.087 -41.619 -29.079 -41.618 L -28.988 -41.598 C -26.709 -41.122 -24.345 -40.922 -22.091 -40.33 C -20.552 -39.916 -18.957 -39.681 -17.382 -39.519 C -17.357 -39.513 -17.322 -39.515 -17.297 -39.509 C -16.815 -39.459 -16.44 -38.981 -15.846 -39.538 C -15.814 -39.566 -15.78 -39.602 -15.745 -39.646 L -15.737 -39.645 C -15.496 -39.594 -15.27 -39.476 -15.021 -39.51 C -14.248 -39.605 -13.51 -39.656 -12.798 -40.032 C -12.507 -40.178 -12.229 -40.344 -11.971 -40.54 C -10.936 -41.298 -10.181 -42.366 -10.041 -43.635 C -9.914 -42.053 -9.829 -40.372 -9.966 -38.76 C -22.196 -32.149 -37.217 -32.902 -51.663 -34.781 C -52.181 -37.087 -52.113 -39.519 -51.376 -41.817 Z "
                  fill="rgb(75,147,220)"/>
            <path d=" M -17.382 -39.518 C -17.317 -39.253 -17.259 -38.998 -17.219 -38.739 C -17.038 -37.636 -16.972 -36.523 -16.844 -35.413 C -16.777 -34.836 -15.862 -34.702 -15.781 -35.326 C -15.629 -36.488 -15.665 -37.664 -15.782 -38.823 C -15.81 -39.054 -15.829 -39.291 -15.846 -39.537 C -16.441 -38.98 -16.815 -39.458 -17.297 -39.509 C -17.322 -39.514 -17.357 -39.513 -17.382 -39.518 Z "
                  fill="rgb(252,215,53)"/>
            <path d=" M -22 -36.442 C -22.301 -34.948 -22.266 -33.4 -22.338 -31.883 C -22.368 -31.171 -22.44 -30.425 -22.486 -29.682 C -21.975 -29.763 -21.473 -29.847 -20.969 -29.939 C -20.988 -30.376 -21.001 -30.803 -21.006 -31.228 C -21.015 -32.935 -20.9 -34.693 -21.174 -36.379 C -21.251 -36.828 -21.904 -36.932 -22 -36.442 Z "
                  fill="rgb(252,215,53)"/>
            <path d=" M -30.494 -41.919 C -30.322 -41.346 -30.156 -40.782 -30.018 -40.208 C -29.6 -38.431 -29.32 -36.615 -28.847 -34.852 C -28.712 -34.347 -27.972 -34.528 -27.981 -35.014 C -28.032 -36.894 -28.4 -38.782 -28.79 -40.613 C -28.859 -40.939 -28.92 -41.264 -28.987 -41.598 L -29.078 -41.618 C -29.086 -41.62 -29.086 -41.62 -29.095 -41.621 L -30.494 -41.919 Z "
                  fill="rgb(252,215,53)"/>
            <path d=" M -34.969 -36.673 C -34.555 -33.815 -34.561 -30.9 -34.332 -28.029 C -33.774 -28.092 -33.215 -28.155 -32.663 -28.228 C -32.727 -31.141 -33.351 -34.148 -33.914 -36.873 C -34.036 -37.478 -35.056 -37.28 -34.969 -36.673 Z "
                  fill="rgb(252,215,53)"/>
            <path d=" M -13.24 -37.547 C -12.93 -36.157 -12.484 -34.712 -11.935 -33.348 C -11.593 -33.734 -11.314 -34.151 -11.081 -34.595 C -11.516 -35.726 -12.033 -36.832 -12.585 -37.858 C -12.796 -38.249 -13.325 -37.92 -13.24 -37.547 Z "
                  fill="rgb(252,215,53)"/>
            <path d=" M -12.797 -40.032 C -12.468 -39.668 -12.127 -39.318 -11.784 -38.977 C -11.456 -38.647 -10.867 -39.137 -11.16 -39.511 C -11.423 -39.861 -11.696 -40.204 -11.971 -40.54 C -12.229 -40.344 -12.506 -40.178 -12.797 -40.032 Z "
                  fill="rgb(252,215,53)"/>
            <path d=" M -40.591 -42.509 C -39.91 -40.096 -39.262 -37.691 -38.742 -35.209 C -38.629 -34.683 -37.793 -34.868 -37.83 -35.387 C -37.993 -37.715 -38.377 -40.142 -39.014 -42.476 C -39.065 -42.479 -39.109 -42.479 -39.16 -42.482 C -39.641 -42.497 -40.019 -43.002 -40.591 -42.509 Z "
                  fill="rgb(252,215,53)"/>
        </g>
    </g>
</svg>