<?xml version="1.0" standalone="no"?><!-- Generator: Gravit.io -->
<svg xmlns="http://www.w3.org/2000/svg"
     viewBox="0 0 133 135" width="133" height="135">
    <defs>
        <clipPath id="_clipPath_hAwTcVNJrijHJOeMI0FVATwizb1sDx4U">
            <rect width="133" height="135"/>
        </clipPath>
    </defs>
    <g clip-path="url(#_clipPath_hAwTcVNJrijHJOeMI0FVATwizb1sDx4U)">
        <g>
            <path d=" M 41.809 58.875 L 31.914 76.154 C 31.465 76.998 31.229 77.87 31.229 78.764 C 31.229 86.069 46.978 92 66.375 92 C 85.772 92 101.521 86.069 101.521 78.764 C 101.521 78.503 100.604 75.678 100.112 75.046 L 84.623 47.497 L 67.476 17 L 49.352 46.568 L 41.809 58.875 Z "
                  fill="rgb(235,235,235)"/>
        </g>
        <path d=" M 94.254 64.627 C 86.25 69.313 76.936 72 67 72 C 56.682 72 47.035 69.103 38.829 64.078 L 41.099 60.115 C 48.617 64.868 57.494 67.615 67 67.615 C 76.138 67.614 84.695 65.075 92.022 60.657 L 94.254 64.627 Z "
              fill-rule="evenodd" fill="rgb(195,207,217)"/>
        <path d=" M 99.225 73.468 C 89.408 79.513 77.851 83 65.487 83 C 53.651 83 42.555 79.804 33.016 74.229 L 35.715 69.516 C 44.438 74.759 54.618 77.769 65.487 77.769 C 76.897 77.768 87.549 74.45 96.553 68.715 L 99.225 73.468 Z "
              fill="rgb(195,207,217)"/>
    </g>
</svg>