<?xml version="1.0" standalone="no"?><!-- Generator: Gravit.io -->
<svg xmlns="http://www.w3.org/2000/svg"
     viewBox="0 0 133 135" width="133" height="135">
    <defs>
        <clipPath id="_clipPath_dqnMenjCmaaH0S66Ze8Okqxyl4gqoGeZ">
            <rect width="133" height="135"/>
        </clipPath>
    </defs>
    <g clip-path="url(#_clipPath_dqnMenjCmaaH0S66Ze8Okqxyl4gqoGeZ)">
        <g>
            <path d=" M 64.062 88.544 L 46.505 87.585 L 67.033 20.134 L 86.495 89 L 64.062 88.544 Z "
                  fill-rule="evenodd" fill="rgb(246,241,218)"/>
            <path d=" M 64.062 88.544 L 46.505 87.585 L 53.034 66.162 C 59.725 66.568 66.507 67.961 73.188 70.421 C 76.42 71.609 79.505 73.022 82.438 74.594 L 86.495 89 L 64.062 88.544 Z "
                  fill-rule="evenodd" fill="rgb(242,218,166)"/>
            <path d=" M 63.893 30.441 L 64.752 27.648 L 69.253 27.987 L 70.091 30.893 L 63.893 30.441 Z  M 61.976 36.804 L 62.797 34.067 L 71.492 35.933 L 72.384 39.049 L 61.976 36.804 Z  M 59.036 46.44 L 59.903 43.607 L 73.744 43.907 L 74.552 46.761 L 59.036 46.44 Z  M 56.47 54.884 L 57.299 52.107 L 76.47 53.508 L 77.284 56.428 L 56.47 54.884 Z  M 53.912 63.289 L 54.951 59.8 L 79.593 64.612 L 80.715 68.532 L 53.912 63.289 Z "
                  fill-rule="evenodd" fill="rgb(242,218,166)"/>
        </g>
        <path d=" M -105.712 58.399 L -115.607 75.678 C -116.056 76.522 -116.292 77.394 -116.292 78.288 C -116.292 85.593 -100.543 91.524 -81.146 91.524 C -61.749 91.524 -46 85.593 -46 78.288 C -46 78.027 -46.917 75.202 -47.409 74.57 L -62.898 47.021 L -80.045 16.524 L -98.169 46.092 L -105.712 58.399 Z "
              fill="rgb(235,235,235)"/>
        <path d=" M -53.267 64.151 C -61.271 68.837 -70.585 71.524 -80.521 71.524 C -90.839 71.524 -100.486 68.627 -108.692 63.602 L -106.422 59.639 C -98.904 64.392 -90.027 67.139 -80.521 67.139 C -71.383 67.138 -62.826 64.599 -55.499 60.181 L -53.267 64.151 Z "
              fill-rule="evenodd" fill="rgb(195,207,217)"/>
        <path d=" M -48.296 72.992 C -58.113 79.037 -69.67 82.524 -82.034 82.524 C -93.87 82.524 -104.966 79.328 -114.505 73.753 L -111.806 69.04 C -103.083 74.283 -92.903 77.293 -82.034 77.293 C -70.624 77.292 -59.972 73.974 -50.968 68.239 L -48.296 72.992 Z "
              fill="rgb(195,207,217)"/>
        <g>
            <path d=" M 172.924 58.942 L 166.448 76.221 C 166.154 77.065 166 77.937 166 78.831 C 166 86.136 176.306 92.067 189 92.067 C 201.694 92.067 212 86.136 212 78.831 C 212 78.57 211.4 75.745 211.078 75.113 L 200.942 47.564 L 189.721 17.067 L 177.86 46.635 L 172.924 58.942 Z "
                  fill="rgb(235,235,235)"/>
            <path d=" M 169.606 81.492 C 168.187 79.087 169.004 75.994 171.409 74.598 C 173.814 73.202 176.907 74.018 178.303 76.424 C 179.72 78.83 178.904 81.922 176.5 83.318 C 174.094 84.714 171.002 83.898 169.606 81.492 Z "
                  fill-rule="evenodd" fill="rgb(244,72,121)"/>
            <path d=" M 197.187 73.98 C 196.349 72.542 196.822 70.673 198.282 69.835 C 199.72 68.998 201.568 69.491 202.406 70.93 C 203.243 72.369 202.771 74.238 201.311 75.075 C 199.871 75.913 198.024 75.418 197.187 73.98 Z "
                  fill-rule="evenodd" fill="rgb(244,72,121)"/>
            <path d=" M 195.296 61.224 C 194.694 60.193 195.038 58.883 196.068 58.282 C 197.102 57.702 198.409 58.046 198.99 59.055 C 199.592 60.085 199.248 61.395 198.217 61.997 C 197.207 62.598 195.898 62.233 195.296 61.224 Z "
                  fill-rule="evenodd" fill="rgb(244,72,121)"/>
            <path d=" M 177.01 87.936 C 176.408 86.905 176.752 85.595 177.782 84.994 C 178.816 84.414 180.123 84.758 180.704 85.767 C 181.306 86.797 180.962 88.107 179.931 88.709 C 178.921 89.31 177.612 88.945 177.01 87.936 Z "
                  fill-rule="evenodd" fill="rgb(244,72,121)"/>
            <path d=" M 208.548 68.238 L 205.13 58.947 C 204.526 59.04 203.93 59.245 203.371 59.569 C 200.966 60.965 200.149 64.058 201.568 66.463 C 202.964 68.869 206.056 69.685 208.462 68.289 C 208.491 68.272 208.52 68.255 208.548 68.238 Z "
                  fill-rule="evenodd" fill="rgb(244,72,121)"/>
        </g>
    </g>
</svg>