<svg xmlns="http://www.w3.org/2000/svg"
     viewBox="0 0 133 135" width="133" height="135">
    <defs>
        <clipPath id="_clipPath_ae17IScGlQ44p4i4pOr53NBkRi2MwLLx">
            <rect width="133" height="135"/>
        </clipPath>
    </defs>
    <g clip-path="url(#_clipPath_ae17IScGlQ44p4i4pOr53NBkRi2MwLLx)">
        <g>
            <path d=" M 64.562 -35.589 L 47.005 -36.549 L 67.533 -104 L 86.995 -35.134 L 64.562 -35.589 Z "
                  fill-rule="evenodd" fill="rgb(246,241,218)"/>
            <path d=" M 64.562 -35.589 L 47.005 -36.549 L 53.534 -57.972 C 60.225 -57.565 67.007 -56.172 73.688 -53.713 C 76.92 -52.525 80.005 -51.111 82.938 -49.54 L 86.995 -35.134 L 64.562 -35.589 Z "
                  fill-rule="evenodd" fill="rgb(242,218,166)"/>
            <path d=" M 64.393 -93.693 L 65.252 -96.486 L 69.753 -96.146 L 70.591 -93.24 L 64.393 -93.693 Z  M 62.476 -87.329 L 63.297 -90.066 L 71.992 -88.201 L 72.884 -85.084 L 62.476 -87.329 Z  M 59.536 -77.694 L 60.403 -80.527 L 74.244 -80.227 L 75.052 -77.373 L 59.536 -77.694 Z  M 56.97 -69.249 L 57.799 -72.027 L 76.97 -70.626 L 77.784 -67.706 L 56.97 -69.249 Z  M 54.412 -60.844 L 55.451 -64.334 L 80.093 -59.522 L 81.215 -55.602 L 54.412 -60.844 Z "
                  fill-rule="evenodd" fill="rgb(242,218,166)"/>
        </g>
        <path d=" M -105.712 58.399 L -115.607 75.678 C -116.056 76.522 -116.292 77.394 -116.292 78.288 C -116.292 85.593 -100.543 91.524 -81.146 91.524 C -61.749 91.524 -46 85.593 -46 78.288 C -46 78.027 -46.917 75.202 -47.409 74.57 L -62.898 47.021 L -80.045 16.524 L -98.169 46.092 L -105.712 58.399 Z "
              fill="rgb(235,235,235)"/>
        <path d=" M -53.267 64.151 C -61.271 68.837 -70.585 71.524 -80.521 71.524 C -90.839 71.524 -100.486 68.627 -108.692 63.602 L -106.422 59.639 C -98.904 64.392 -90.027 67.139 -80.521 67.139 C -71.383 67.138 -62.826 64.599 -55.499 60.181 L -53.267 64.151 Z "
              fill-rule="evenodd" fill="rgb(195,207,217)"/>
        <path d=" M -48.296 72.992 C -58.113 79.037 -69.67 82.524 -82.034 82.524 C -93.87 82.524 -104.966 79.328 -114.505 73.753 L -111.806 69.04 C -103.083 74.283 -92.903 77.293 -82.034 77.293 C -70.624 77.292 -59.972 73.974 -50.968 68.239 L -48.296 72.992 Z "
              fill="rgb(195,207,217)"/>
        <g>
            <path d=" M 50.424 58.942 L 43.948 76.221 C 43.654 77.065 43.5 77.937 43.5 78.831 C 43.5 86.136 53.806 92.067 66.5 92.067 C 79.194 92.067 89.5 86.136 89.5 78.831 C 89.5 78.57 88.9 75.745 88.578 75.113 L 78.442 47.564 L 67.221 17.067 L 55.36 46.635 L 50.424 58.942 Z "
                  fill="rgb(235,235,235)"/>
            <path d=" M 47.106 81.492 C 45.687 79.087 46.504 75.994 48.909 74.598 C 51.314 73.202 54.407 74.018 55.803 76.424 C 57.22 78.83 56.404 81.922 54 83.318 C 51.594 84.714 48.502 83.898 47.106 81.492 Z "
                  fill-rule="evenodd" fill="rgb(244,72,121)"/>
            <path d=" M 74.687 73.98 C 73.849 72.542 74.322 70.673 75.782 69.835 C 77.22 68.998 79.068 69.491 79.906 70.93 C 80.743 72.369 80.271 74.238 78.811 75.075 C 77.371 75.913 75.524 75.418 74.687 73.98 Z "
                  fill-rule="evenodd" fill="rgb(244,72,121)"/>
            <path d=" M 72.796 61.224 C 72.194 60.193 72.538 58.883 73.568 58.282 C 74.602 57.702 75.909 58.046 76.49 59.055 C 77.092 60.085 76.748 61.395 75.717 61.997 C 74.707 62.598 73.398 62.233 72.796 61.224 Z "
                  fill-rule="evenodd" fill="rgb(244,72,121)"/>
            <path d=" M 54.51 87.936 C 53.908 86.905 54.252 85.595 55.282 84.994 C 56.316 84.414 57.623 84.758 58.204 85.767 C 58.806 86.797 58.462 88.107 57.431 88.709 C 56.421 89.31 55.112 88.945 54.51 87.936 Z "
                  fill-rule="evenodd" fill="rgb(244,72,121)"/>
            <path d=" M 86.048 68.238 L 82.63 58.947 C 82.026 59.04 81.43 59.245 80.871 59.569 C 78.466 60.965 77.649 64.058 79.068 66.463 C 80.464 68.869 83.556 69.685 85.962 68.289 C 85.991 68.272 86.02 68.255 86.048 68.238 Z "
                  fill-rule="evenodd" fill="rgb(244,72,121)"/>
        </g>
    </g>
</svg>