<svg xmlns="http://www.w3.org/2000/svg"
     viewBox="0 0 133 135" width="133" height="135">
    <defs>
        <clipPath id="_clipPath_UZlT0S6BkfURGfBonKSyJuZB8XZ685YJ">
            <rect width="133" height="135"/>
        </clipPath>
    </defs>
    <g clip-path="url(#_clipPath_UZlT0S6BkfURGfBonKSyJuZB8XZ685YJ)">
        <g>
            <path d=" M 64.562 -35.589 L 47.005 -36.549 L 67.533 -104 L 86.995 -35.134 L 64.562 -35.589 Z "
                  fill-rule="evenodd" fill="rgb(246,241,218)"/>
            <path d=" M 64.562 -35.589 L 47.005 -36.549 L 53.534 -57.972 C 60.225 -57.565 67.007 -56.172 73.688 -53.713 C 76.92 -52.525 80.005 -51.111 82.938 -49.54 L 86.995 -35.134 L 64.562 -35.589 Z "
                  fill-rule="evenodd" fill="rgb(242,218,166)"/>
            <path d=" M 64.393 -93.693 L 65.252 -96.486 L 69.753 -96.146 L 70.591 -93.24 L 64.393 -93.693 Z  M 62.476 -87.329 L 63.297 -90.066 L 71.992 -88.201 L 72.884 -85.084 L 62.476 -87.329 Z  M 59.536 -77.694 L 60.403 -80.527 L 74.244 -80.227 L 75.052 -77.373 L 59.536 -77.694 Z  M 56.97 -69.249 L 57.799 -72.027 L 76.97 -70.626 L 77.784 -67.706 L 56.97 -69.249 Z  M 54.412 -60.844 L 55.451 -64.334 L 80.093 -59.522 L 81.215 -55.602 L 54.412 -60.844 Z "
                  fill-rule="evenodd" fill="rgb(242,218,166)"/>
        </g>
        <g>
            <path d=" M 41.934 58.399 L 32.039 75.678 C 31.59 76.522 31.354 77.394 31.354 78.288 C 31.354 85.593 47.103 91.524 66.5 91.524 C 85.897 91.524 101.646 85.593 101.646 78.288 C 101.646 78.027 100.729 75.202 100.237 74.57 L 84.748 47.021 L 67.601 16.524 L 49.477 46.092 L 41.934 58.399 Z "
                  fill="rgb(235,235,235)"/>
            <path d=" M 94.379 64.151 C 86.375 68.837 77.061 71.524 67.125 71.524 C 56.807 71.524 47.16 68.627 38.954 63.602 L 41.224 59.639 C 48.742 64.392 57.619 67.139 67.125 67.139 C 76.263 67.138 84.82 64.599 92.147 60.181 L 94.379 64.151 Z "
                  fill-rule="evenodd" fill="rgb(195,207,217)"/>
            <path d=" M 99.35 72.992 C 89.533 79.037 77.976 82.524 65.612 82.524 C 53.776 82.524 42.68 79.328 33.141 73.753 L 35.84 69.04 C 44.563 74.283 54.743 77.293 65.612 77.293 C 77.022 77.292 87.674 73.974 96.678 68.239 L 99.35 72.992 Z "
                  fill="rgb(195,207,217)"/>
        </g>
        <g>
            <path d=" M 182.924 58.875 L 176.448 76.154 C 176.154 76.998 176 77.87 176 78.764 C 176 86.069 186.306 92 199 92 C 211.694 92 222 86.069 222 78.764 C 222 78.503 221.4 75.678 221.078 75.046 L 210.942 47.497 L 199.721 17 L 187.86 46.568 L 182.924 58.875 Z "
                  fill="rgb(235,235,235)"/>
            <path d=" M 179.606 81.425 C 178.187 79.02 179.004 75.927 181.409 74.531 C 183.814 73.135 186.907 73.951 188.303 76.357 C 189.72 78.763 188.904 81.855 186.5 83.251 C 184.094 84.647 181.002 83.831 179.606 81.425 Z "
                  fill-rule="evenodd" fill="rgb(244,72,121)"/>
            <path d=" M 207.187 73.914 C 206.349 72.476 206.822 70.607 208.282 69.769 C 209.72 68.932 211.568 69.425 212.406 70.864 C 213.243 72.303 212.771 74.172 211.311 75.009 C 209.871 75.847 208.024 75.352 207.187 73.914 Z "
                  fill-rule="evenodd" fill="rgb(244,72,121)"/>
            <path d=" M 205.296 61.157 C 204.694 60.126 205.038 58.816 206.068 58.215 C 207.102 57.635 208.409 57.979 208.99 58.988 C 209.592 60.018 209.248 61.328 208.217 61.93 C 207.207 62.531 205.898 62.166 205.296 61.157 Z "
                  fill-rule="evenodd" fill="rgb(244,72,121)"/>
            <path d=" M 187.01 87.869 C 186.408 86.838 186.752 85.528 187.782 84.927 C 188.816 84.347 190.123 84.691 190.704 85.7 C 191.306 86.73 190.962 88.04 189.931 88.642 C 188.921 89.243 187.612 88.878 187.01 87.869 Z "
                  fill-rule="evenodd" fill="rgb(244,72,121)"/>
            <path d=" M 218.548 68.171 L 215.13 58.88 C 214.526 58.973 213.93 59.178 213.371 59.503 C 210.966 60.899 210.149 63.992 211.568 66.397 C 212.964 68.803 216.056 69.619 218.462 68.223 C 218.491 68.206 218.52 68.188 218.548 68.171 Z "
                  fill-rule="evenodd" fill="rgb(244,72,121)"/>
        </g>
    </g>
</svg>