<?xml version="1.0" standalone="no"?><!-- Generator: Gravit.io -->
<svg xmlns="http://www.w3.org/2000/svg"
     viewBox="0 0 133 135" width="133" height="135">
    <defs>
        <clipPath id="_clipPath_b0PXwUglSO9VRqF1864yhySc5ZTQG193">
            <rect width="133" height="135"/>
        </clipPath>
    </defs>
    <g clip-path="url(#_clipPath_b0PXwUglSO9VRqF1864yhySc5ZTQG193)">
        <g>
            <path d=" M 94.778 63.838 C 94.838 64.596 94.868 65.363 94.868 66.137 C 94.868 82.178 81.851 95.162 65.807 95.162 C 49.796 95.162 36.781 82.178 36.781 66.137 C 36.781 65.363 36.811 64.596 36.87 63.838 L 94.778 63.838 Z "
                  fill-rule="evenodd" fill="rgb(255,148,40)"/>
            <path d=" M 91.841 63.838 C 91.907 64.595 91.941 65.362 91.941 66.136 C 91.941 80.53 80.237 92.236 65.807 92.236 C 51.412 92.236 39.706 80.53 39.706 66.136 C 39.706 65.362 39.74 64.595 39.806 63.838 L 91.841 63.838 Z "
                  fill-rule="evenodd" fill="rgb(255,255,255)"/>
            <path d=" M 86.671 63.838 C 86.754 64.593 86.796 65.36 86.796 66.137 C 86.796 77.706 77.411 87.092 65.807 87.092 C 54.238 87.092 44.853 77.706 44.853 66.137 C 44.853 65.36 44.895 64.593 44.978 63.838 L 86.671 63.838 Z "
                  fill-rule="evenodd" fill="rgb(93,102,102)"/>
            <path d=" M 80.361 63.838 C 80.478 64.587 80.539 65.354 80.539 66.136 C 80.539 74.241 73.947 80.833 65.807 80.833 C 57.702 80.833 51.108 74.241 51.108 66.136 C 51.108 65.354 51.169 64.587 51.286 63.838 L 80.361 63.838 Z "
                  fill-rule="evenodd" fill="rgb(127,23,36)"/>
            <path d=" M 59.312 60.292 C 61.584 60.292 63.424 62.13 63.424 64.403 C 63.424 66.676 61.584 68.536 59.312 68.536 C 57.04 68.536 55.178 66.676 55.178 64.403 C 55.178 62.13 57.04 60.292 59.312 60.292 Z "
                  fill-rule="evenodd" fill="rgb(255,255,255)"/>
            <rect x="24.105" y="59.139" width="84.79" height="4.699"
                  transform="matrix(1,0,0,1,0,0)" fill="rgb(255,148,40)"/>
        </g>
    </g>
</svg>