<?xml version="1.0" standalone="no"?><!-- Generator: Gravit.io -->
<svg xmlns="http://www.w3.org/2000/svg"
     viewBox="0 0 133 135" width="133" height="135">
    <defs>
        <clipPath id="_clipPath_g2x8OqnFX39VNbujcBd1rHEuDDYgwA1c">
            <rect width="133" height="135"/>
        </clipPath>
    </defs>
    <g clip-path="url(#_clipPath_g2x8OqnFX39VNbujcBd1rHEuDDYgwA1c)">
        <g>
            <path d=" M 67.802 94.916 C 65.289 94.916 63.249 96.957 63.249 99.469 C 63.249 101.981 65.289 104 67.802 104 C 70.314 104 72.333 101.981 72.333 99.469 C 72.333 96.957 70.314 94.916 67.802 94.916 Z "
                  fill-rule="evenodd" fill="rgb(82,155,139)"/>
            <path d=" M 71.668 88.087 C 70.165 88.087 68.94 89.312 68.94 90.814 C 68.94 92.339 70.165 93.542 71.668 93.542 C 73.171 93.542 74.395 92.339 74.395 90.814 C 74.395 89.312 73.171 88.087 71.668 88.087 Z "
                  fill-rule="evenodd" fill="rgb(82,155,139)"/>
            <path d=" M 54 88.892 C 52.927 88.892 52.067 89.752 52.067 90.825 C 52.067 91.878 52.927 92.736 54 92.736 C 55.074 92.736 55.933 91.878 55.933 90.825 C 55.933 89.752 55.074 88.892 54 88.892 Z "
                  fill-rule="evenodd" fill="rgb(82,155,139)"/>
            <path d=" M 80 100.156 C 78.927 100.156 78.067 101.016 78.067 102.089 C 78.067 103.142 78.927 104 80 104 C 81.074 104 81.933 103.142 81.933 102.089 C 81.933 101.016 81.074 100.156 80 100.156 Z "
                  fill-rule="evenodd" fill="rgb(82,155,139)"/>
        </g>
    </g>
</svg>